<?xml version="1.0" standalone="no"?>
<!DOCTYPE svg PUBLIC "-//W3C//DTD SVG 20010904//EN"
 "http://www.w3.org/TR/2001/REC-SVG-20010904/DTD/svg10.dtd">
<svg version="1.0" xmlns="http://www.w3.org/2000/svg"
 width="300.000000pt" height="300.000000pt" viewBox="0 0 300.000000 300.000000"
 preserveAspectRatio="xMidYMid meet">
<metadata>
Created by potrace 1.11, written by Peter Selinger 2001-2013
</metadata>
<g transform="translate(0.000000,300.000000) scale(0.100000,-0.100000)"
fill="#000000" stroke="none">
<path d="M590 2904 c-180 -38 -357 -177 -439 -344 -72 -148 -71 -125 -71
-1055 0 -930 -1 -907 71 -1055 83 -169 260 -307 444 -345 104 -22 1706 -22
1810 0 240 50 450 260 500 500 22 104 22 1696 0 1800 -50 240 -260 450 -500
500 -101 21 -1716 21 -1815 -1z m1877 -426 c-8 -207 -25 -446 -33 -459 -3 -5
-24 -9 -48 -9 l-43 0 -43 118 c-23 64 -63 172 -87 240 l-45 122 -254 0 -254 0
0 -990 0 -990 23 -5 c12 -3 63 -14 112 -24 50 -11 108 -26 130 -34 39 -14 40
-15 43 -65 l3 -52 -470 0 -471 0 0 50 0 49 78 24 c67 21 116 34 210 53 l22 4
0 990 0 990 -253 0 -253 0 -22 -62 c-13 -35 -53 -143 -89 -240 l-66 -178 -42
0 c-40 0 -43 2 -49 33 -9 50 -24 265 -32 450 l-7 167 973 0 973 0 -6 -182z"/>
</g>
</svg>
