<?xml version="1.0" standalone="no"?>
<!DOCTYPE svg PUBLIC "-//W3C//DTD SVG 20010904//EN"
 "http://www.w3.org/TR/2001/REC-SVG-20010904/DTD/svg10.dtd">
<svg version="1.0" xmlns="http://www.w3.org/2000/svg"
 width="16.000000pt" height="16.000000pt" viewBox="0 0 16.000000 16.000000"
 preserveAspectRatio="xMidYMid meet">
<metadata>
Created by potrace 1.11, written by Peter Selinger 2001-2013
</metadata>
<g transform="translate(0.000000,16.000000) scale(0.002878,-0.002878)"
fill="#000000" stroke="none">
<path d="M2609 5416 c-2 -2 -35 -6 -74 -10 -113 -11 -129 -13 -250 -40 -116
-25 -248 -63 -325 -93 -8 -4 -17 -7 -20 -8 -11 -4 -63 -26 -108 -46 -228 -102
-400 -211 -621 -394 -68 -56 -275 -274 -333 -350 -12 -16 -26 -34 -31 -40 -26
-32 -117 -167 -117 -174 0 -4 -11 -21 -24 -36 -21 -25 -174 -320 -197 -380
-17 -47 -22 -61 -24 -71 -2 -6 -10 -27 -19 -45 -14 -30 -81 -251 -92 -304 -2
-11 -11 -56 -20 -100 -8 -44 -17 -89 -19 -100 -4 -19 -8 -46 -22 -180 -16
-135 -8 -520 13 -647 2 -16 6 -43 9 -60 13 -82 21 -122 45 -220 6 -24 12 -53
15 -65 6 -37 92 -285 122 -353 71 -165 239 -467 265 -478 4 -2 8 -8 8 -13 0
-6 5 -15 10 -22 6 -7 31 -39 56 -71 77 -102 116 -146 219 -250 98 -98 201
-191 234 -210 9 -5 21 -14 27 -20 6 -6 22 -18 34 -26 12 -8 28 -19 34 -25 54
-48 356 -222 416 -240 3 -1 19 -7 35 -14 205 -85 351 -127 534 -157 18 -3 43
-8 55 -10 128 -26 557 -25 681 1 11 3 34 7 50 9 17 3 44 8 60 11 17 3 39 7 50
9 31 6 148 36 165 43 8 3 20 7 25 9 55 14 229 82 303 118 51 25 94 46 97 46
18 0 334 204 355 229 3 3 25 22 50 41 113 86 386 363 398 403 1 4 10 16 20 26
38 43 112 148 112 161 0 6 5 10 10 10 6 0 10 4 10 9 0 6 13 30 30 54 93 138
263 529 295 677 1 8 9 35 16 60 15 54 16 56 23 95 3 17 8 41 11 55 3 14 7 36
10 50 2 14 11 75 21 135 26 161 25 608 -1 742 -6 32 -16 95 -21 132 -2 19 -9
51 -14 70 -11 42 -22 90 -26 111 -9 48 -85 283 -97 298 -5 6 -7 12 -4 12 23 0
-229 490 -273 530 -3 3 -9 12 -15 21 -25 40 -64 96 -84 119 -11 14 -24 30 -28
35 -68 90 -246 274 -342 355 -103 87 -188 150 -201 150 -6 0 -10 3 -10 8 0 4
-23 21 -51 37 -28 17 -56 35 -62 40 -7 6 -34 21 -60 35 -27 14 -79 40 -115 59
-63 32 -165 79 -187 85 -5 2 -23 9 -40 15 -33 14 -171 60 -196 66 -8 2 -44 10
-80 19 -35 9 -77 18 -94 21 -16 3 -41 7 -55 10 -14 3 -45 8 -70 11 -25 3 -56
8 -70 10 -31 6 -426 15 -431 10z"/>
</g>
</svg>
